<mxfile host="Electron" modified="2024-03-29T00:47:09.817Z" agent="Mozilla/5.0 (Windows NT 10.0; Win64; x64) AppleWebKit/537.36 (KHTML, like Gecko) draw.io/24.1.0 Chrome/120.0.6099.109 Electron/28.1.0 Safari/537.36" etag="o3QW50tn1Z2qkyw7lVKP" version="24.1.0" type="device">
  <diagram name="Page-1" id="eGnRSX-BdF70KafMSX82">
    <mxGraphModel dx="1084" dy="951" grid="1" gridSize="10" guides="1" tooltips="1" connect="1" arrows="1" fold="1" page="1" pageScale="1" pageWidth="850" pageHeight="1100" math="0" shadow="0">
      <root>
        <mxCell id="0" />
        <mxCell id="1" parent="0" />
        <mxCell id="aKWGnZ_UCuL-Iv-LWD_8-1" style="edgeStyle=orthogonalEdgeStyle;rounded=0;orthogonalLoop=1;jettySize=auto;html=1;entryX=0;entryY=0.5;entryDx=0;entryDy=0;" edge="1" parent="1" source="aKWGnZ_UCuL-Iv-LWD_8-2" target="aKWGnZ_UCuL-Iv-LWD_8-6">
          <mxGeometry relative="1" as="geometry" />
        </mxCell>
        <mxCell id="aKWGnZ_UCuL-Iv-LWD_8-2" value="Monolithic" style="rounded=0;whiteSpace=wrap;html=1;fillColor=#dae8fc;strokeColor=#6c8ebf;" vertex="1" parent="1">
          <mxGeometry x="250" y="340" width="120" height="60" as="geometry" />
        </mxCell>
        <mxCell id="aKWGnZ_UCuL-Iv-LWD_8-3" style="edgeStyle=orthogonalEdgeStyle;rounded=0;orthogonalLoop=1;jettySize=auto;html=1;entryX=0;entryY=0.5;entryDx=0;entryDy=0;" edge="1" parent="1" source="aKWGnZ_UCuL-Iv-LWD_8-4" target="aKWGnZ_UCuL-Iv-LWD_8-7">
          <mxGeometry relative="1" as="geometry" />
        </mxCell>
        <mxCell id="aKWGnZ_UCuL-Iv-LWD_8-4" value="Microservices" style="rounded=0;whiteSpace=wrap;html=1;fillColor=#ffe6cc;strokeColor=#d79b00;" vertex="1" parent="1">
          <mxGeometry x="550" y="340" width="120" height="60" as="geometry" />
        </mxCell>
        <mxCell id="aKWGnZ_UCuL-Iv-LWD_8-5" style="edgeStyle=orthogonalEdgeStyle;rounded=0;orthogonalLoop=1;jettySize=auto;html=1;entryX=0;entryY=0.5;entryDx=0;entryDy=0;" edge="1" parent="1" source="aKWGnZ_UCuL-Iv-LWD_8-6" target="aKWGnZ_UCuL-Iv-LWD_8-4">
          <mxGeometry relative="1" as="geometry" />
        </mxCell>
        <mxCell id="aKWGnZ_UCuL-Iv-LWD_8-6" value="Modular Monolithic" style="rounded=0;whiteSpace=wrap;html=1;fillColor=#fff2cc;strokeColor=#d6b656;" vertex="1" parent="1">
          <mxGeometry x="400" y="340" width="120" height="60" as="geometry" />
        </mxCell>
        <mxCell id="aKWGnZ_UCuL-Iv-LWD_8-7" value="Serverless" style="rounded=0;whiteSpace=wrap;html=1;fillColor=#e1d5e7;strokeColor=#9673a6;" vertex="1" parent="1">
          <mxGeometry x="700" y="340" width="120" height="60" as="geometry" />
        </mxCell>
      </root>
    </mxGraphModel>
  </diagram>
</mxfile>
